<svg xmlns="http://www.w3.org/2000/svg" xmlns:xlink="http://www.w3.org/1999/xlink" width="0" height="0">

  <symbol id="logo" viewBox="0 0 440 440">
    <g transform="translate(0.000000,377.000000) scale(0.100000,-0.100000)"
fill="#000000" stroke="none">
<path d="M0 3565 l0 -205 75 0 c41 0 75 3 75 8 0 4 7 59 16 122 24 168 10 160
261 160 l203 0 0 -756 0 -756 -22 -19 c-13 -10 -39 -19 -58 -19 -19 0 -59 -3
-87 -6 l-53 -7 0 -53 0 -54 345 0 345 0 0 54 0 54 -87 7 c-49 5 -98 14 -110
23 l-23 14 0 759 0 759 204 0 205 0 19 -25 c11 -14 22 -49 26 -82 4 -32 11
-86 17 -120 l11 -63 74 0 74 0 0 205 0 205 -755 0 -755 0 0 -205z"/>
<path d="M2240 3210 c-52 -46 -119 -106 -147 -134 l-53 -50 0 128 0 128 -57
-4 c-32 -3 -124 -26 -205 -52 l-148 -47 0 -40 0 -39 95 0 95 0 0 -483 0 -484
-23 -21 c-16 -16 -42 -24 -92 -29 l-70 -8 -3 -47 -3 -48 326 0 326 0 -3 48 -3
47 -95 8 c-76 6 -99 12 -117 29 l-23 21 0 382 0 382 76 73 c83 78 158 120 217
120 44 0 96 -20 116 -43 9 -12 29 -17 62 -17 l49 0 0 111 0 110 -37 16 c-21 8
-72 18 -113 20 l-75 6 -95 -83z"/>
<path d="M3135 3280 c-129 -20 -241 -68 -314 -134 -32 -29 -71 -113 -71 -156
0 -20 7 -46 16 -58 14 -21 22 -22 134 -22 l119 0 3 112 3 111 40 14 c55 20
200 28 253 14 104 -29 145 -109 140 -276 l-3 -98 -165 -43 c-297 -77 -426
-131 -515 -219 -64 -62 -85 -119 -85 -226 0 -145 63 -250 182 -305 56 -26 73
-29 158 -28 81 1 108 5 180 33 47 17 122 54 167 81 45 28 84 50 86 50 3 0 8
-17 11 -37 4 -21 12 -55 17 -75 l10 -38 190 0 190 0 -3 48 -3 47 -68 7 c-37 5
-78 15 -92 24 l-23 15 -4 447 c-5 488 -6 502 -66 591 -59 87 -145 122 -312
127 -63 1 -142 -1 -175 -6z m325 -825 l0 -235 -69 -34 c-240 -121 -418 -95
-462 67 -34 126 28 244 164 313 50 26 329 123 355 124 9 0 12 -53 12 -235z"/>
<path d="M4723 3269 c-40 -11 -124 -47 -187 -79 l-116 -58 0 74 0 74 -47 0
c-29 0 -110 -20 -203 -49 l-155 -49 -3 -41 -3 -41 95 0 96 0 0 -483 0 -484
-24 -22 c-18 -17 -40 -23 -95 -28 l-71 -6 0 -48 0 -49 290 0 290 0 0 49 0 48
-61 6 c-44 4 -67 11 -85 28 l-24 22 0 447 0 447 58 26 c86 39 167 57 253 57
124 0 194 -36 233 -119 20 -44 21 -62 24 -451 l3 -405 -23 -22 c-16 -15 -43
-24 -88 -30 l-65 -8 -3 -47 -3 -48 295 0 296 0 0 49 0 48 -71 6 c-55 5 -77 11
-95 28 l-24 22 0 406 c0 444 -6 498 -57 592 -15 28 -41 62 -58 76 -90 77 -237
101 -372 62z"/>
<path d="M5913 3280 c-145 -27 -243 -91 -295 -197 -30 -62 -33 -75 -33 -163 0
-115 16 -151 101 -229 43 -39 100 -74 228 -136 184 -90 234 -125 260 -179 18
-39 21 -131 5 -173 -41 -110 -201 -162 -356 -115 -103 32 -103 33 -122 158
l-16 109 -62 3 -63 3 0 -175 0 -175 53 -16 c135 -39 346 -48 465 -20 137 32
236 106 289 213 25 51 28 67 28 162 0 89 -3 111 -22 146 -39 74 -111 126 -298
218 -199 98 -255 142 -275 215 -24 92 11 178 90 219 40 21 56 23 135 20 63 -3
104 -10 136 -25 51 -23 50 -19 65 -155 l6 -58 64 0 64 0 0 150 c0 170 7 157
-95 185 -71 19 -278 28 -352 15z"/>
<path d="M7095 3274 c-226 -50 -406 -228 -459 -454 -24 -100 -30 -207 -17
-303 36 -270 171 -448 401 -528 53 -18 87 -23 185 -23 140 0 229 20 363 85
l82 40 0 68 0 69 -77 -39 c-95 -48 -176 -69 -263 -69 -220 0 -378 125 -435
345 -23 89 -21 279 4 378 57 219 198 344 377 335 45 -2 80 -9 97 -21 27 -17
27 -19 27 -125 l0 -108 35 -17 c44 -21 116 -22 155 -2 50 26 70 61 70 125 0
109 -69 190 -198 231 -90 28 -252 34 -347 13z"/>
<path d="M550 1827 c-168 -57 -276 -176 -310 -342 -29 -139 23 -279 157 -425
l50 -54 -76 -45 c-176 -102 -271 -253 -271 -431 0 -176 82 -332 227 -431 124
-86 306 -118 468 -84 109 23 283 114 366 192 l26 24 62 -67 c49 -54 61 -73 61
-100 l0 -34 235 0 235 0 0 54 0 53 -52 7 c-29 3 -83 6 -120 6 l-66 0 -94 108
c-51 59 -98 114 -105 122 -9 13 -3 29 34 85 54 83 111 200 148 306 l27 77 74
11 c41 6 84 11 94 11 17 0 20 7 20 55 l0 55 -270 0 -270 0 0 -54 0 -54 72 -7
c58 -6 75 -12 95 -33 12 -14 23 -33 23 -43 0 -44 -77 -209 -132 -282 -12 -16
-34 5 -241 229 l-228 247 71 39 c102 54 148 88 202 145 183 197 140 501 -89
625 -113 62 -299 78 -423 35z m250 -118 c87 -39 134 -105 148 -208 24 -177
-47 -318 -205 -403 l-51 -28 -88 93 c-109 113 -146 182 -152 279 -6 90 2 126
39 181 31 47 77 82 127 97 51 15 135 10 182 -11z m29 -1085 c149 -163 271
-300 271 -305 0 -4 -24 -26 -53 -48 -238 -180 -536 -133 -652 102 -77 157 -62
333 37 449 27 32 107 98 118 98 4 0 130 -133 279 -296z"/>
<path d="M2587 1833 c-2 -5 -143 -380 -312 -835 l-309 -826 -60 -12 c-101 -19
-96 -15 -96 -76 l0 -54 263 2 262 3 3 51 3 51 -38 7 c-21 3 -62 6 -91 6 -91 0
-90 6 18 299 l93 251 316 0 316 0 93 -248 c51 -136 92 -254 92 -263 0 -26 -22
-39 -65 -39 -22 0 -57 -3 -77 -6 l-38 -7 0 -53 0 -54 305 0 305 0 0 55 c0 48
-3 55 -22 60 -13 3 -50 11 -82 17 l-59 13 -293 765 c-161 421 -305 795 -320
833 l-26 67 -88 0 c-49 0 -91 -3 -93 -7z m187 -646 c69 -186 126 -345 126
-353 0 -12 -41 -14 -259 -14 -143 0 -262 3 -264 8 -3 4 54 171 126 371 90 249
133 357 138 345 4 -11 64 -171 133 -357z"/>
<path d="M4340 1324 c-30 -8 -111 -42 -179 -75 -68 -32 -125 -59 -127 -59 -2
0 -4 32 -4 70 l0 70 -52 0 c-34 -1 -107 -18 -203 -48 l-150 -47 -3 -43 -3 -42
95 0 96 0 0 -483 0 -484 -22 -20 c-17 -15 -43 -23 -95 -28 l-73 -7 0 -49 0
-49 290 0 290 0 0 49 0 49 -62 7 c-42 5 -70 14 -85 28 l-23 20 0 449 0 448 57
25 c93 42 164 58 243 58 135 0 208 -38 246 -126 17 -38 19 -81 22 -446 3 -402
3 -403 -18 -426 -17 -18 -37 -25 -91 -30 l-69 -7 0 -49 0 -49 295 0 295 0 0
49 0 48 -72 7 c-54 6 -79 13 -95 29 l-23 20 0 396 c0 227 -5 424 -11 461 -20
130 -81 221 -177 266 -71 34 -206 42 -292 18z"/>
<path d="M5862 1325 c-62 -17 -187 -71 -252 -109 -25 -14 -48 -26 -52 -26 -4
0 -8 30 -10 68 l-3 67 -50 3 c-37 2 -90 -10 -205 -46 l-155 -49 -3 -41 -3 -42
95 0 96 0 0 -483 c0 -562 10 -515 -113 -532 l-72 -10 0 -45 0 -45 293 -3 292
-2 0 49 0 49 -62 6 c-38 5 -72 15 -85 26 l-23 18 0 451 0 451 38 19 c75 38
175 63 257 64 126 1 197 -31 238 -106 22 -41 22 -50 25 -456 3 -412 3 -414
-19 -437 -16 -17 -37 -24 -85 -29 l-64 -7 0 -49 0 -49 290 0 290 0 0 49 0 49
-67 7 c-46 4 -76 13 -93 27 l-25 20 -5 452 c-6 500 -4 486 -77 589 -48 69
-139 110 -252 114 -54 2 -106 -3 -139 -12z"/>
<path d="M7124 1321 c-176 -48 -300 -151 -382 -316 -52 -104 -66 -175 -67
-330 0 -153 16 -229 75 -345 146 -290 518 -405 820 -254 69 35 102 59 157 118
116 121 169 253 180 441 17 317 -141 578 -408 672 -101 36 -270 42 -375 14z
m245 -107 c158 -44 255 -193 283 -437 14 -116 1 -262 -31 -368 -107 -343 -484
-388 -632 -74 -50 107 -63 175 -63 340 -1 113 4 166 17 215 49 182 140 292
267 326 62 17 94 17 159 -2z"/>
</g>
  </symbol>

  <symbol id="header-user" viewBox="0 0 28 28">
    <path fill="currentColor" d="M14,0.12C6.34,0.12,0.12,6.34,0.12,14S6.34,27.88,14,27.88S27.88,21.66,27.88,14S21.66,0.12,14,0.12z M14,1.12 c7.1,0,12.88,5.78,12.88,12.88c0,3.11-1.11,5.96-2.95,8.19c-0.01-0.69-1.71-1.7-4.31-2.69c-2.61-0.99-3.44-1.83-3.44-3.62 c0-1.08,0.79-0.73,1.14-2.69c0.15-0.82,0.85-0.02,0.98-1.88c0-0.75-0.38-0.93-0.38-0.93s0.2-1.1,0.27-1.94 c0.09-1.05-0.58-3.78-4.2-3.78c-3.62,0-4.29,2.72-4.2,3.78c0.08,0.85,0.27,1.94,0.27,1.94s-0.38,0.18-0.38,0.93 c0.13,1.86,0.83,1.06,0.98,1.88c0.35,1.96,1.14,1.61,1.14,2.69c0,1.79-0.83,2.63-3.44,3.62c-2.6,0.99-4.29,2-4.31,2.69 C2.23,19.96,1.12,17.11,1.12,14C1.12,6.9,6.9,1.12,14,1.12z"/>
  </symbol>

  <symbol id="start-reading" viewBox="0 0 80 80">
    <path fill="currentColor" d="M79.81,36.83C79.81,36.83,79.81,36.83,79.81,36.83C79.77,36.76,69.93,20,61.73,20c-8.21,0-2.33,3-2.33,3 s13.87,6.12,15.68,12.5c-4.81-1.02-10.81-1-13.14-1c-0.02,0-0.04,0.01-0.06,0.01c-0.19,0-0.38-0.01-0.57-0.01 c-2.36,0-4.39,0.15-6.15,0.42c-0.02,0-0.03,0-0.05,0c-0.05,0.01-0.09,0.02-0.13,0.03c-1.29,0.2-2.43,0.47-3.43,0.79 c-3.49,1-6.81,2.3-11.55,2.3c-4.74,0-8.07-1.31-11.56-2.3c-1-0.32-2.14-0.58-3.43-0.79c-0.05-0.01-0.09-0.02-0.13-0.03 c-0.02,0-0.04,0-0.05,0c-1.76-0.26-3.8-0.42-6.15-0.42c-0.19,0-0.37,0.01-0.56,0.01c-0.02,0-0.04-0.01-0.06-0.01 c-2.33,0-8.34-0.02-13.15,1C6.72,29.12,20.59,23,20.59,23s5.88-3-2.33-3C10.05,20,0.19,36.83,0.19,36.83 c-0.42,0.22-0.01,5.22,0.07,5.42c0.13,0.33,2.06,2.68,3.54,8.37h0c0.99,5.29,6,9.38,13.78,9.38c6.42,0,11.34-2.01,14.37-5.64 c0.01-0.02,0.02-0.02,0.03-0.03c4.78-5.53,2.7-9.07,8.03-9.07c5.32,0,3.24,3.54,8.02,9.07c0.01,0.01,0.02,0.02,0.03,0.03 C51.08,57.99,56.01,60,62.42,60c7.41,0,12.79-4.09,13.78-9.38h0c1.47-5.69,3.41-8.03,3.54-8.37 C79.82,42.06,80.23,37.05,79.81,36.83z M17.94,56.08c-9,0-10-4.67-10-10.19c0-4.56,1.31-7.47,10.88-7.47c8.75,0,12,2.52,12,6.12 C30.82,50.39,27.52,56.08,17.94,56.08z M62.19,56.08c-9.58,0-12.89-5.69-12.89-11.55c0-3.59,3.25-6.12,12-6.12 c9.58,0,10.89,2.92,10.89,7.47C72.18,51.41,71.18,56.08,62.19,56.08z"/>
  </symbol>

  <symbol id="start-transcribing" viewBox="0 0 80 80">
    <path fill="currentColor" d="M18.51,79.03c1.22-4.03,2.16-9.65,4.6-17.79c10.79-1.78,16.98,0,23.83-12.55c-5.25,0.67-15.1-5.6-13.6-4.02 c6.57,2.61,18.21,2.81,28.34-15.45c-12.67,2.81-19.61-1.68-17.73-1.87c3.47-0.18,14.92-0.94,20.83-6.83 c3.1-2.99,4.51-10.39,3.29-13.01c-1.5-3.18-10.61-7.95-15.68-7.49C47.32,0.5,34.65,12.76,34.56,16.97 c0.09,2.53-0.09-5.9,3.94-13.76C34.18,5.18,24.05,13.7,21.52,18.84c-4.6,9.64-0.56,25.66-1.5,24.06 c-2.35-4.12-2.72-7.29-3.94-16.66c-7.88,11.6-4.5,22.65,2.06,32.66c-2.44,6.64-2.81,14.22-3,18.06 C15.04,80.15,18.04,80.81,18.51,79.03z"/>
  </symbol>

  <symbol id="start-project" viewBox="0 0 80 80">
    <path fill="currentColor" d="M4.65,9.07c3.58-0.57,7.48,2.65,8.7,7.18c0.89,2.43,0.96,2.9,1.6,5.03C13.32,22.01,7.98,23.75,4.71,25 c-1.49-1.28-3.76-4.31-4.35-6.51C-0.85,13.88,1.07,9.65,4.65,9.07L4.65,9.07z M33.18,63.47c1.79,2.08,2.44,3.56,3.5,6.75 c1.23,4.25-0.69,8.42-4.28,9.33c-3.58,0.93-7.48-1.82-8.7-6.15c-0.58-2.08-0.71-4.28-0.37-6.16 C27.97,65.57,33.18,63.47,33.18,63.47z M7.67,7.55c6.62-0.12,9.58,13.74,11.49,19.99c2.97,10.1,11.06,26.85,17.07,36.53 c4.18,5.98,5.22,11.7,0.17,15.93c13.34-6.33,26.62-11.18,41.97-15.17c3.61-3.53,0.75-10.12-3.83-16.76 C66.77,37.42,60.06,20.21,56.04,8.3c-2.36-6.99-5.54-8.8-8.84-8.19c0,0-12.42,2.59-16.56,3.35C24.9,4.54,7.67,7.55,7.67,7.55z"/>
  </symbol>

  <symbol id="start-server" viewBox="0 0 80 80">
    <path fill="currentColor" d="M78.66,21.97c-0.68-4.38-5.12-8.38-9.5-8.77c-19.44-1.6-38.89-1.6-58.33,0c-4.38,0.39-8.81,4.39-9.5,8.77 c-1.78,12.02-1.78,24.04,0,36.06c0.68,4.38,5.12,8.38,9.5,8.77c19.44,1.6,38.89,1.6,58.33,0c4.38-0.39,8.81-4.39,9.5-8.77 C80.45,46.01,80.45,33.99,78.66,21.97z M25.06,44.06l-11,11c-0.29,0.29-0.68,0.44-1.06,0.44s-0.77-0.15-1.06-0.44 c-0.59-0.59-0.59-1.54,0-2.12L21.88,43l-9.94-9.94c-0.59-0.59-0.59-1.54,0-2.12c0.59-0.59,1.54-0.59,2.12,0l11,11 C25.65,42.53,25.65,43.47,25.06,44.06z M46,56H28c-0.83,0-1.5-0.67-1.5-1.5S27.17,53,28,53h18c0.83,0,1.5,0.67,1.5,1.5 S46.83,56,46,56z"/>
  </symbol>

  <symbol id="service-planning" viewBox="0 0 80 80">
    <path fill="currentColor" d="M42.53,39.09c-1.58,0-3.04,0.68-4.04,1.93c-1.01,1.24-1.35,2.82-1.13,4.29L37.69,47c0.12,0.34-0.34,0.68-0.67,0.56 c-2.93-1.24-5.06-4.18-4.84-7.67c0.11-4.3,3.6-7.8,7.88-7.8c4.38,0,7.98,3.61,7.98,8.02c0,0.45-0.45,0.68-0.78,0.57l-2.71-1.13 C43.88,39.32,43.2,39.09,42.53,39.09z M60.87,46.55l2.81,1.24c0.45,0.23,0.91,0,1.01-0.45c0.68-2.26,1.01-4.75,1.01-7.24 c0-14.35-11.59-25.98-25.88-25.87C25.87,14.36,14.4,25.88,14.4,39.89c-0.11,14.23,11.48,25.98,25.77,25.98c0.23,0,0.45,0,0.68,0 c0.23,0,0.56-0.22,0.45-0.56l-0.68-3.4c-0.12-0.21-0.33-0.44-0.56-0.44c-11.82,0-21.38-9.61-21.49-21.47 c0.11-11.64,9.56-21.13,21.15-21.24c11.82-0.11,21.49,9.49,21.49,21.35c0,1.92-0.34,3.84-0.79,5.65 C60.42,46.1,60.53,46.44,60.87,46.55z M39.49,0C17.78,0.35,0.11,18.2,0,39.89C0,61.8,17.55,79.77,39.38,80 c6.53,0.11,12.72-1.36,18.12-4.07c0.56-0.23,0.56-0.91,0.11-1.24c-0.56-0.34-1.01-0.79-1.45-1.36l-0.57-0.68 c-0.21-0.34-0.56-0.34-0.89-0.23c-4.39,2.15-9.35,3.28-14.52,3.28C20.81,75.81,4.84,60.11,4.5,40.68 C4.28,20.79,20.25,4.41,40.06,4.41C59.63,4.53,75.49,20.46,75.61,40c0,8.58-3.04,16.38-7.99,22.59c-0.22,0.22-0.22,0.68,0,0.91 l0.23,0.33c0.57,0.68,1.01,1.35,1.24,2.15c0.23,0.56,0.9,0.68,1.24,0.22c6.08-7,9.79-16.27,9.68-26.32 C79.88,17.63,61.65-0.33,39.49,0z M65.37,53.33l-22.73-9.72c-0.45-0.23-1.01,0.23-0.9,0.79l4.73,24.29 c0.11,0.68,1.01,0.79,1.12,0.23l3.83-7.01c0.22-0.44,0.78-0.44,1.12-0.11l7.09,8.81c1.13,1.47,3.38,1.58,4.62,0.12 c1.01-1.13,0.9-2.94,0-4.07l-6.97-8.7c-0.33-0.45-0.11-1.02,0.33-1.13l7.65-2.26C65.93,54.46,65.93,53.55,65.37,53.33z"/>
  </symbol>

  <symbol id="service-support" viewBox="0 0 80 80">
    <path fill="currentColor" d="M54.72,66.35c2.03,2.12,2.03,4.66,0,6.69c-1.44,1.44-2.88,2.79-4.23,4.23c-1.86,2.2-4.23,2.88-7.02,2.71 c-4.06-0.25-7.78-1.52-11.33-3.3c-7.95-3.89-14.71-9.22-20.46-16C7.46,55.69,4,50.19,1.71,44.09c-1.1-2.96-1.86-6.01-1.69-9.22 c0.17-2.03,0.93-3.73,2.37-5.08c1.61-1.53,3.04-3.05,4.65-4.57c2.03-2.03,4.57-2.03,6.59,0c1.27,1.27,2.45,2.45,3.72,3.72 c1.18,1.19,2.45,2.46,3.64,3.64c2.11,2.12,2.11,4.65,0,6.77c-1.52,1.53-3.04,3.05-4.57,4.57C16,44.35,16,44.6,16.17,45.11 c1.01,2.46,2.45,4.57,4.14,6.6c3.3,4.06,7.1,7.7,11.5,10.5c0.93,0.59,2.03,1.01,3.04,1.61c0.51,0.25,0.84,0.17,1.27-0.25 c1.52-1.52,3.04-3.13,4.57-4.65c2.03-2.03,4.57-2.03,6.59,0C49.73,61.36,52.27,63.81,54.72,66.35z M72.64,42.99 c-8.29,8.29-20.88,9.56-30.52,3.89l-0.08-0.08c-3.8,2.88-7.86,3.38-10.74,2.96c-0.93-0.17-1.1-1.44-0.25-1.86 c2.54-1.19,4.23-3.73,5.16-5.76l-0.25-0.25c-8.79-9.9-8.37-25.05,1.1-34.53c9.81-9.82,25.79-9.82,35.59,0 C82.45,17.18,82.45,33.18,72.64,42.99z M51.76,13.79c0,2.29,1.86,4.15,4.14,4.15c2.2,0,4.06-1.86,4.06-4.15s-1.78-4.15-4.06-4.15 C53.62,9.65,51.76,11.51,51.76,13.79z M60.81,36.56c-0.42,0.17-0.76,0.43-1.18,0.59c-0.51,0.17-1.01,0.34-1.52,0.42 c-0.59,0.09-1.1-0.25-1.27-0.85c-0.08-0.42-0.17-0.93-0.08-1.44c0.08-1.01,0.34-1.95,0.51-2.88c0.51-2.96,1.1-5.84,1.61-8.8 c0.17-0.76,0.25-1.61,0.25-2.37c0-0.93-0.59-1.44-1.52-1.44c-1.35,0-2.71,0-3.98,0c-1.27,0-2.53,0-3.8,0c-0.34,0-0.59,0-0.93,0.09 c-0.59,0.08-0.85,0.42-0.93,0.85c-0.08,0.42,0.08,0.76,0.68,1.01c0.42,0.17,0.93,0.17,1.35,0.26c1.01,0.17,1.44,0.51,1.35,1.61 c0,0.17,0,0.34,0,0.51c-0.42,2.54-0.93,5.16-1.35,7.7c-0.26,1.44-0.51,2.96-0.68,4.4c-0.34,2.2,1.78,4.23,3.47,4.4 c1.01,0.17,2.03,0.17,2.96,0.17c2.11,0,3.89-0.93,5.41-2.45c0.25-0.25,0.51-0.59,0.59-1.01C61.91,36.73,61.4,36.31,60.81,36.56z"/>
  </symbol>

  <symbol id="service-deployment" viewBox="0 0 80 80">
    <path fill="currentColor" d="M76.33,28.83H3.67C1.64,28.83,0,30.45,0,32.45V48.1c0,1.99,1.64,3.61,3.67,3.61h72.67c2.02,0,3.67-1.62,3.67-3.61V32.45 C80,30.45,78.36,28.83,76.33,28.83z M53.94,43.77H8.19v-6.98h45.75V43.77z M70.4,43.52c-1.82,0-3.3-1.45-3.3-3.25 c0-1.79,1.48-3.25,3.3-3.25c1.82,0,3.3,1.46,3.3,3.25C73.7,42.07,72.22,43.52,70.4,43.52z M76.33,55.07H3.67 C1.64,55.07,0,56.69,0,58.68v15.66c0,1.99,1.64,3.61,3.67,3.61h72.67c2.02,0,3.67-1.62,3.67-3.61V58.68 C80,56.69,78.36,55.07,76.33,55.07z M53.94,70H8.19v-6.98h45.75V70z M70.4,69.76c-1.82,0-3.3-1.46-3.3-3.25 c0-1.8,1.48-3.25,3.3-3.25c1.82,0,3.3,1.46,3.3,3.25C73.7,68.3,72.22,69.76,70.4,69.76z M76.33,2.05H3.67C1.64,2.05,0,3.67,0,5.67 v15.65c0,1.99,1.64,3.61,3.67,3.61h72.67c2.02,0,3.67-1.62,3.67-3.61V5.66C80,3.67,78.36,2.05,76.33,2.05z M53.94,16.98H8.19V10 h45.75V16.98z M70.4,16.74c-1.82,0-3.3-1.46-3.3-3.25c0-1.79,1.48-3.25,3.3-3.25c1.82,0,3.3,1.46,3.3,3.25 C73.7,15.28,72.22,16.74,70.4,16.74z"/>
  </symbol>

  <symbol id="service-development" viewBox="0 0 80 80">
    <path fill="currentColor" d="M76.18,2H3.82C2.86,2,2,2.86,2,3.82v72.36C2,77.14,2.86,78,3.82,78h72.36c0.96,0,1.82-0.86,1.82-1.82V3.82 C78,2.86,77.14,2,76.18,2z M28.23,6.28c1.28,0,2.25,0.96,2.25,2.25c0,1.29-0.96,2.25-2.25,2.25c-1.28,0-2.25-0.96-2.25-2.25 C25.98,7.25,26.94,6.28,28.23,6.28z M18.7,6.28c1.29,0,2.25,0.96,2.25,2.25c0,1.29-0.96,2.25-2.25,2.25 c-1.29,0-2.25-0.96-2.25-2.25C16.45,7.25,17.52,6.28,18.7,6.28z M9.28,6.28c1.29,0,2.25,0.96,2.25,2.25c0,1.29-0.96,2.25-2.25,2.25 S7.03,9.82,7.03,8.53C7.03,7.25,7.99,6.28,9.28,6.28z M72.65,70.83c0,0.96-0.85,1.82-1.82,1.82H9.17c-0.96,0-1.82-0.85-1.82-1.82 v-51.7c0-0.96,0.85-1.82,1.82-1.82h61.66c0.96,0,1.82,0.85,1.82,1.82V70.83z M66.44,42.68c0.54,0.54,0.75,1.18,0.75,1.93 s-0.32,1.39-0.75,1.93l-9.32,9.2c-0.54,0.43-1.28,0.75-1.93,0.75c-0.75,0-1.5-0.32-2.03-0.96c-0.96-1.07-0.75-2.79,0.21-3.75 l6.32-6.31c0.53-0.53,0.53-1.5,0-2.03l-6.32-6.31c-0.96-0.96-1.18-2.57-0.32-3.64c1.07-1.28,2.89-1.28,3.96-0.21L66.44,42.68z M20.2,43.21c-0.54,0.54-0.54,1.5,0,2.03l6.31,6.32c0.96,0.96,1.18,2.68,0.21,3.75c-0.43,0.85-1.18,1.18-1.93,1.18 c-0.65,0-1.39-0.21-1.93-0.75l-9.42-9.42c-0.54-0.54-0.75-1.18-0.75-1.93c0-0.75,0.32-1.39,0.75-1.93l9.31-9.31 c0.96-0.96,2.57-1.18,3.64-0.32c1.29,1.07,1.29,2.89,0.21,3.96L20.2,43.21z M48.13,29.62L36.9,61.09 c-0.43,1.07-1.39,1.82-2.57,1.82c-0.32,0-0.64,0-0.85-0.1c-1.39-0.54-2.14-2.04-1.61-3.43L43.1,27.8c0.54-1.39,2.03-2.14,3.43-1.6 C47.92,26.73,48.67,28.22,48.13,29.62z"/>
  </symbol>

  <symbol id="service-integration" viewBox="0 0 80 80">
    <path fill="currentColor" d="M55.56,28.89H24.44c-1.25,0-2.22,0.98-2.22,2.22v17.78c0,1.25,0.98,2.22,2.22,2.22h31.11c1.25,0,2.22-0.98,2.22-2.22V31.11 C57.78,29.87,56.8,28.89,55.56,28.89z M53.33,46.67H26.67V33.33h26.67V46.67z M12.71,60.62c-0.89-0.89-2.31-0.89-3.11,0 c-0.89,0.89-0.89,2.31,0,3.11l2.84,2.93H6.67c-1.25,0-2.22-0.98-2.22-2.22V15.56c0-1.25,0.98-2.22,2.22-2.22h15.56V20 c0,1.25,0.98,2.22,2.22,2.22h31.11c1.25,0,2.22-0.98,2.22-2.22V2.22C57.78,0.98,56.8,0,55.56,0H24.44c-1.25,0-2.22,0.98-2.22,2.22 v6.67H6.67C3.02,8.89,0,11.91,0,15.56v48.89c0,3.65,3.02,6.67,6.67,6.67h5.78L9.6,73.95c-0.89,0.89-0.89,2.31,0,3.11 c0.89,0.89,2.31,0.89,3.11,0l6.67-6.67c0.89-0.89,0.89-2.31,0-3.11L12.71,60.62z M26.67,4.44h26.67v13.33H26.67V4.44z M73.33,8.89 h-5.78l2.84-2.84c0.89-0.89,0.89-2.31,0-3.11c-0.89-0.89-2.31-0.89-3.11,0L60.62,9.6c-0.89,0.89-0.89,2.31,0,3.11l6.67,6.67 c0.89,0.89,2.31,0.89,3.11,0c0.89-0.89,0.89-2.31,0-3.11l-2.84-2.93h5.78c1.25,0,2.22,0.98,2.22,2.22v51.11 c0,1.25-0.98,2.22-2.22,2.22H57.78V60c0-1.25-0.98-2.22-2.22-2.22H24.44c-1.25,0-2.22,0.98-2.22,2.22v17.78 c0,1.24,0.98,2.22,2.22,2.22h31.11c1.25,0,2.22-0.98,2.22-2.22v-4.44h15.56c3.65,0,6.67-3.02,6.67-6.67V15.56 C80,11.91,76.98,8.89,73.33,8.89z M53.33,75.56H26.67V62.22h26.67V75.56z"/>
  </symbol>

  <symbol id="service-export" viewBox="0 0 80 80">
    <path fill="currentColor" d="M7.79,66.07h33.33l-1.91,4.24c-0.21,0.47-0.34,0.96-0.43,1.44H4.9c-0.76,0-1.51-0.3-2.05-0.83C2.31,70.38,2,69.65,2,68.91 V2.84c0-0.75,0.31-1.48,0.85-2.01C3.39,0.3,4.14,0,4.9,0h32.82c0.77,0,1.51,0.3,2.05,0.83l14.89,14.56 c0.55,0.54,0.85,1.25,0.85,2.01v6.26c-2.31,1.2-4.31,2.96-5.79,5.2V18.79H37.15c-0.17,0-0.34-0.06-0.46-0.18 c-0.12-0.12-0.18-0.28-0.18-0.45V5.68H7.8h0V66.07z M76.75,46.3c-2.37,5.3-7.58,8.49-13.11,8.67l-9.67,21.45 c-1.36,3.03-4.97,4.41-8.06,3.08c-3.09-1.33-4.5-4.86-3.15-7.89l9.57-21.21c-3.93-4.12-5.21-10.28-2.75-15.77 c2.27-5.06,7.14-8.23,12.4-8.64l-5.47,12.2l4.59,6.78l8.29-1.25l5.47-12.2C78.1,35.59,79.02,41.23,76.75,46.3z M51.58,73.41 c0-1.5-1.24-2.71-2.76-2.71c-1.53,0-2.77,1.21-2.77,2.71c0,1.5,1.24,2.71,2.77,2.71C50.34,76.11,51.58,74.9,51.58,73.41z"/>
  </symbol>

  <symbol id="service-processing" viewBox="0 0 80 80">
    <path fill="currentColor" d="M80,14.56V0H65.44v5.51H14.55V0H0v14.56h5.51v50.88H0V80h14.55v-5.51h50.89V80H80V65.44h-5.51V14.56H80z M3.54,11.02V3.54 h7.48v7.48H3.54z M11.02,76.46H3.54v-7.49h7.48V76.46z M65.44,70.96H14.55v-5.51H9.05V14.56h5.51V9.05h50.89v5.51h5.51v50.88h-5.51 V70.96z M76.46,68.98v7.49h-7.48v-7.49H76.46z M68.98,11.02V9.05h-0.01V3.54h7.49v7.48H68.98z M57.04,52.69l-15.65-37.4h-1.16 l-15.82,37c-1.37,3.25-2.62,5.4-3.75,6.47c-0.55,0.53-1.77,0.96-3.65,1.29v1.23h14.16v-1.23c-2.17-0.16-3.58-0.49-4.23-1.01 c-0.65-0.52-0.98-1.12-0.98-1.8c0-0.86,0.37-2.17,1.12-3.91l3.05-7.1h17.41l2.72,6.47c0.88,2.1,1.33,3.63,1.33,4.61 c0,0.73-0.31,1.35-0.94,1.86c-0.64,0.51-1.84,0.8-3.64,0.9v1.22h17.74v-1.22c-1.83-0.11-3.27-0.62-4.29-1.51 C59.44,57.65,58.3,55.7,57.04,52.69z M31.17,43.77L39,25.61l7.63,18.17H31.17z"/>
  </symbol>

  <symbol id="service-import" viewBox="0 0 80 80">
    <path fill="currentColor" d="M17.6,20.5h14.21V8.72C31.81,4.18,35.48,2,40,2c4.53,0,8.19,2.18,8.19,6.72V20.5h14.21c0.35,0,0.68,0.21,0.83,0.53 c0.15,0.32,0.1,0.7-0.13,0.98l-22.4,26.6c-0.17,0.2-0.43,0.32-0.69,0.32c-0.27,0-0.52-0.12-0.69-0.32l-22.4-26.6 c-0.23-0.27-0.28-0.66-0.13-0.98C16.93,20.7,17.25,20.5,17.6,20.5z M72.01,17.61c-0.65-2.31-1.61-3.6-3.58-3.6H51.68v3.58h17.06 l6.06,33.48l-21.32,0v8.27H27.01v-8.27l-21.81,0l7.88-33.49h15.24v-3.58H11.58c-1.98,0-3.14,1.4-3.58,3.6L0,52.08V73.5 C0,75.99,2,78,4.47,78h71.06c2.46,0,4.47-2.01,4.47-4.5V52.08L72.01,17.61z"/>
  </symbol>

  <symbol id="big-menu" viewBox="0 0 24 24">
    <path fill="currentColor" d="M12,0.2C5.48,0.2,0.2,5.48,0.2,12S5.48,23.8,12,23.8S23.8,18.52,23.8,12S18.52,0.2,12,0.2z M12,23C5.93,23,1,18.07,1,12 S5.93,1,12,1s11,4.93,11,11S18.07,23,12,23z M18,12c0,0.55-0.45,1-1,1H7c-0.55,0-1-0.45-1-1s0.45-1,1-1h10C17.55,11,18,11.45,18,12 z M18,16c0,0.55-0.45,1-1,1H7c-0.55,0-1-0.45-1-1s0.45-1,1-1h10C17.55,15,18,15.45,18,16z M18,8c0,0.55-0.45,1-1,1H7 C6.45,9,6,8.55,6,8s0.45-1,1-1h10C17.55,7,18,7.45,18,8z"/>
  </symbol>

  <symbol id="icon-user" viewBox="0 0 16 16">
    <path fill="currentColor" d="M12.53,11.96c-2.1-0.8-2.77-1.47-2.77-2.91c0-0.87,0.64-0.58,0.92-2.17c0.12-0.66,0.68-0.01,0.79-1.51 c0-0.6-0.31-0.75-0.31-0.75s0.16-0.89,0.22-1.57C11.46,2.19,10.91,0,8,0C5.09,0,4.54,2.19,4.62,3.04c0.06,0.68,0.22,1.57,0.22,1.57 S4.53,4.76,4.53,5.36c0.11,1.5,0.67,0.85,0.79,1.51c0.28,1.59,0.92,1.3,0.92,2.17c0,1.44-0.67,2.12-2.77,2.91 C1.37,12.76,0,13.57,0,14.13S0,16,0,16h16c0,0,0-1.31,0-1.87S14.63,12.76,12.53,11.96L12.53,11.96z"/>
  </symbol>

  <symbol id="icon-key" viewBox="0 0 16 16">
    <path fill="currentColor" d="M11,0C8.24,0,6,2.24,6,5c0,0.66,0.13,1.29,0.37,1.86L0,13.81V16h2l2-2.19h2 l0.5-2.19H8L9.68,9.8C10.1,9.92,10.54,10,11,10c2.76,0,5-2.24,5-5S13.76,0,11,0z M13.62,6.62L9.38,2.38 C9.92,1.84,10.67,1.5,11.5,1.5c1.66,0,3,1.34,3,3C14.5,5.33,14.17,6.08,13.62,6.62z"/>
  </symbol>

  <symbol id="icon-remove-sign" viewBox="0 0 16 16">
    <path fill="currentColor" d="M8,0C3.58,0,0,3.58,0,8s3.58,8,8,8s8-3.58,8-8S12.42,0,8,0z M12.24,10.83l-1.41,1.41L8,9.41l-2.83,2.83 l-1.41-1.41L6.59,8L3.76,5.17l1.41-1.41L8,6.59l2.83-2.83l1.41,1.41L9.41,8L12.24,10.83z"/>
  </symbol>

  <symbol id="icon-check-sign" viewBox="0 0 16 16">
    <path fill="currentColor" d="M8,0C3.58,0,0,3.58,0,8s3.58,8,8,8s8-3.58,8-8S12.42,0,8,0z M7.07,12.48L3.29,8.71l1.41-1.41l2.23,2.23 l4.3-5.16l1.54,1.28L7.07,12.48z"/>
  </symbol>

  <symbol id="icon-warning-sign" viewBox="0 0 16 16">
    <path fill="currentColor" d="M15.54,10.88L10.34,1.6C9.78,0.58,8.92,0,8,0S6.22,0.58,5.66,1.6l-5.19,9.29c-0.56,1.01-0.61,2.04-0.14,2.85 C0.79,14.54,1.73,15,2.88,15h10.24c1.15,0,2.09-0.46,2.56-1.27C16.15,12.93,16.1,11.89,15.54,10.88z M9,13H7v-2h2V13z M9,10H7 L6.7,4h2.6L9,10z"/>
  </symbol>

  <symbol id="icon-plus-sign" viewBox="0 0 16 16">
    <path fill="currentColor" d="M8,0C3.58,0,0,3.58,0,8s3.58,8,8,8s8-3.58,8-8S12.42,0,8,0z M13,9H9v4H7V9H3V7h4V3h2v4h4V9z"/>
  </symbol>

  <symbol id="icon-edit" viewBox="0 0 16 16">
    <path fill="currentColor" d="M2.2,9.95L1,15l5.05-1.21l7.49-7.48L9.69,2.47L2.2,9.95z M3.26,13.71l-0.98-0.98L3,10.25L5.75,13L3.26,13.71z M10.11,3.89 c0.12,0.12,0.12,0.31,0,0.42l-5.8,5.8C4.25,10.17,4.18,10.2,4.1,10.2s-0.15-0.03-0.21-0.09c-0.12-0.12-0.12-0.31,0-0.42l5.8-5.8 C9.81,3.77,10,3.77,10.11,3.89z M16,3.35c0,0.33-0.12,0.6-0.34,0.83l-1.54,1.53l-3.84-3.84l1.53-1.53C12.04,0.12,12.31,0,12.64,0 c0.33,0,0.61,0.12,0.84,0.35l2.17,2.16C15.88,2.75,16,3.03,16,3.35z"/>
  </symbol>

  <symbol id="icon-book" viewBox="0 0 16 16">
    <path fill="currentColor" d="M8.5,6c0-3,4.5-3,4.5-3h2v10c0,0,0,0-2,0c-4.29,0-4.5,2-4.5,2S8.5,8,8.5,6z M7.5,6C7.5,3,3,3,3,3H1v10c0,0,0,0,2,0 c4.29,0,4.5,2,4.5,2S7.5,8,7.5,6z"/>
  </symbol>

  <symbol id="icon-lock" viewBox="0 0 16 16">
    <path fill="currentColor" d="M13,7h-1V4c0-2.21-1.79-4-4-4S4,1.79,4,4v3H3C2.45,7,2,7.45,2,8v7c0,0.55,0.45,1,1,1h10c0.55,0,1-0.45,1-1V8 C14,7.45,13.55,7,13,7z M6,4c0-1.1,0.9-2,2-2s2,0.9,2,2v3H6V4z M9,13c0,0.55-0.45,1-1,1s-1-0.45-1-1v-2c0-0.55,0.45-1,1-1 s1,0.45,1,1V13z"/>
  </symbol>

  <symbol id="icon-unlock" viewBox="0 0 16 16">
    <path fill="currentColor" d="M12,0C9.79,0,8,1.79,8,4v3H2C1.45,7,1,7.45,1,8v7c0,0.55,0.45,1,1,1h9c0.55,0,1-0.45,1-1V8 c0-0.55-0.45-1-1-1h-1V4c0-1.1,0.9-2,2-2s2,0.9,2,2v1h2V4C16,1.79,14.21,0,12,0z"/>
  </symbol>

  <symbol id="icon-export" viewBox="0 0 16 16">
    <path fill="currentColor" d="M11,7c-3.57,0-4.64,0.44-6.5,3.5c0,0-0.08-6.5,6.5-6.5V1l5,4.5L11,10V7z M12,11.79V12H2V5h2.34 c0.18-0.24,0.38-0.47,0.6-0.7C5.46,3.78,6.05,3.35,6.69,3H1C0.45,3,0,3.45,0,4v9c0,0.55,0.45,1,1,1h12c0.55,0,1-0.45,1-1V9.99 L12,11.79z"/>
  </symbol>

  <symbol id="icon-arrow-bottom" viewBox="0 0 16 16">
    <polygon fill="currentColor" points="7,2 7,10.59 2.71,6.29 1.29,7.71 8,14.41 14.71,7.71 13.29,6.29 9,10.59 9,2"/>
  </symbol>

  <symbol id="icon-arrow-left" viewBox="0 0 16 16">
    <polygon fill="currentColor" points="14,7 5.41,7 9.71,2.71 8.29,1.29 1.59,8 8.29,14.71 9.71,13.29 5.41,9 14,9"/>
  </symbol>

  <symbol id="icon-arrow-right" viewBox="0 0 16 16">
    <polygon fill="currentColor" points="2,7 10.59,7 6.29,2.71 7.71,1.29 14.41,8 7.71,14.71 6.29,13.29 10.59,9 2,9"/>
  </symbol>

  <symbol id="icon-arrow-top" viewBox="0 0 16 16">
    <polygon fill="currentColor" points="7,14 7,5.41 2.71,9.71 1.29,8.29 8,1.59 14.71,8.29 13.29,9.71 9,5.41 9,14"/>
  </symbol>

  <symbol id="icon-layout-ltr" viewBox="0 0 16 16">
    <path fill="currentColor" d="M1,1v14h14V1H1z M14,14H8V2h6V14z"/>
  </symbol>

  <symbol id="icon-layout-rtl" viewBox="0 0 16 16">
    <path fill="currentColor" d="M1,1v14h14V1H1z M8,14H2V2h6V14z"/>
  </symbol>

  <symbol id="icon-layout-ttb" viewBox="0 0 16 16">
    <path fill="currentColor" d="M1,1v14h14V1H1z M14,14H2V8h12V14z"/>
  </symbol>

  <symbol id="icon-layout-btt" viewBox="0 0 16 16">
    <path fill="currentColor" d="M1,1v14h14V1H1z M2,8V2h12v6H2z"/>
  </symbol>

  <symbol id="icon-rotate-cw" viewBox="0 0 16 16">
    <path fill="currentColor" d="M16,9V2l-2.48,1.72C12.24,2.07,10.24,1,8,1C4.14,1,1,4.14,1,8c0,3.86,3.14,7,7,7c2.5,0,4.69-1.32,5.93-3.29 l-1.7-1.06C11.34,12.05,9.78,13,8,13c-2.76,0-5-2.24-5-5c0-2.76,2.24-5,5-5c1.57,0,2.96,0.73,3.87,1.86L9.5,6.5L16,9z"/>
  </symbol>

  <symbol id="icon-rotate-ccw" viewBox="0 0 16 16">
    <path fill="currentColor" d="M8,1C5.76,1,3.76,2.07,2.48,3.72L0,2v7l6.5-2.5L4.13,4.86C5.04,3.73,6.43,3,8,3c2.76,0,5,2.24,5,5 c0,2.76-2.24,5-5,5c-1.78,0-3.34-0.95-4.23-2.36l-1.7,1.06C3.31,13.68,5.5,15,8,15c3.86,0,7-3.14,7-7C15,4.14,11.86,1,8,1z"/>
  </symbol>

  <symbol id="icon-enlarge" viewBox="0 0 16 16">
    <path fill="currentColor" d="M15,1v7c0,0.55-0.45,1-1,1s-1-0.45-1-1V4.41L9.71,7.71L8.29,6.29L11.59,3H8C7.45,3,7,2.55,7,2s0.45-1,1-1H15 z M8,13H4.41l3.29-3.29L6.29,8.29L3,11.59V8c0-0.55-0.45-1-1-1S1,7.45,1,8v7h7c0.55,0,1-0.45,1-1S8.55,13,8,13z"/>
  </symbol>

  <symbol id="icon-reduce" viewBox="0 0 16 16">
    <path fill="currentColor" d="M1,8h7v7c0,0.55-0.45,1-1,1s-1-0.45-1-1v-3.59l-4.29,4.29l-1.41-1.41L4.59,10H1c-0.55,0-1-0.45-1-1 S0.45,8,1,8z M15,6h-3.59l4.29-4.29l-1.41-1.41L10,4.59V1c0-0.55-0.45-1-1-1S8,0.45,8,1v7h7c0.55,0,1-0.45,1-1S15.55,6,15,6z"/>
  </symbol>

  <symbol id="icon-refresh" viewBox="0 0 16 16">
    <path fill="currentColor" d="M12.67,9.75l1.88,0.71C13.55,13.11,10.99,15,8,15c-2.25,0-4.24-1.06-5.52-2.71L0,14V7l6.5,2.5l-2.37,1.64 C5.05,12.27,6.44,13,8,13C10.14,13,11.95,11.64,12.67,9.75z M13.52,3.71C12.24,2.06,10.25,1,8,1C5,1,2.45,2.89,1.45,5.54l1.88,0.71 C4.05,4.36,5.86,3,8,3c1.57,0,2.95,0.73,3.87,1.86L9.5,6.5L16,9V2L13.52,3.71z"/>
  </symbol>

  <symbol id="icon-page" viewBox="0 0 16 16">
    <path fill="currentColor" d="M10.5,1H3v14h11V4.5L10.5,1z M5,4h4v1H5V4z M5,6h5v1H5V6z M10,11H5v-1h5V11z M12,9H5V8h7V9z M10,5V1.5L13.5,5H10z"/>
  </symbol>

  <symbol id="icon-comment" viewBox="0 0 16 16">
    <path fill="currentColor" d="M15,6v2c0,1.78-1.19,3.28-2.8,3.79L13,15l-4.5-3H5c-2.2,0-4-1.8-4-4V6c0-2.2,1.8-4,4-4h6C13.2,2,15,3.8,15,6z"/>
  </symbol>

  <symbol id="icon-list" viewBox="0 0 16 16">
    <path fill="currentColor" d="M14,8c0,0.55-0.45,1-1,1H3C2.45,9,2,8.55,2,8s0.45-1,1-1h10C13.55,7,14,7.45,14,8z M13,12H3c-0.55,0-1,0.45-1,1s0.45,1,1,1 h10c0.55,0,1-0.45,1-1S13.55,12,13,12z M3,4h10c0.55,0,1-0.45,1-1s-0.45-1-1-1H3C2.45,2,2,2.45,2,3S2.45,4,3,4z"/>
  </symbol>

</svg>